<?xml version="1.0" standalone="no"?>
<!DOCTYPE svg PUBLIC "-//W3C//DTD SVG 20010904//EN"
 "http://www.w3.org/TR/2001/REC-SVG-20010904/DTD/svg10.dtd">
<svg version="1.0" xmlns="http://www.w3.org/2000/svg"
 width="3520.000000pt" height="1216.000000pt" viewBox="0 0 3520.000000 1216.000000"
 preserveAspectRatio="xMidYMid meet">

<g transform="translate(0.000000,1216.000000) scale(0.100000,-0.100000)"
fill="#000000" stroke="none">
<path d="M5735 9513 c-485 -42 -777 -108 -1146 -261 -538 -223 -974 -547
-1365 -1012 -401 -477 -680 -1121 -749 -1730 -8 -74 -18 -153 -21 -175 -3 -22
-6 -146 -6 -275 1 -322 26 -531 99 -820 71 -283 177 -551 323 -815 18 -33 44
-80 58 -105 52 -96 224 -335 346 -480 63 -75 337 -339 426 -411 249 -201 533
-377 760 -474 47 -19 103 -44 125 -55 122 -59 342 -129 545 -174 220 -48 266
-56 405 -73 132 -16 843 -18 11810 -21 8029 -2 11712 0 11805 8 180 13 288 27
450 57 334 60 684 184 974 345 50 28 116 64 146 81 30 16 96 57 145 90 317
213 542 421 824 762 144 175 356 534 449 762 140 341 193 541 243 913 25 182
31 595 11 745 -6 50 -14 119 -18 155 -7 75 -62 338 -99 472 -61 221 -163 465
-301 718 -59 110 -211 343 -273 420 -69 87 -213 250 -219 250 -4 0 -18 16 -31
36 -30 44 -199 199 -365 335 -100 83 -353 248 -494 322 -89 48 -164 87 -167
87 -2 0 -66 26 -142 59 -284 121 -535 190 -909 248 -102 16 -827 17 -11854 19
-6460 0 -11763 -1 -11785 -3z m10893 -122 l1152 -1 -2 -3317 -3 -3317 -6010 0
c-6347 1 -6082 -1 -6375 45 -205 33 -503 112 -667 178 -29 12 -77 30 -105 42
-191 75 -525 264 -689 389 -299 228 -561 495 -748 758 -320 455 -487 873 -588
1477 -15 90 -18 166 -18 425 0 311 0 317 33 510 19 107 42 229 53 270 24 89
87 297 99 325 4 11 21 56 36 100 31 87 213 456 261 526 16 24 46 68 66 97 20
28 53 76 74 105 55 79 172 226 219 277 169 179 290 290 450 415 102 79 294
208 330 222 11 3 21 10 24 14 3 4 62 37 130 73 472 245 940 368 1464 385 178
5 6910 7 10814 2z m12617 -9 c134 -14 311 -42 455 -73 280 -61 643 -202 895
-347 28 -16 68 -39 89 -51 101 -57 290 -192 382 -271 231 -200 329 -300 470
-477 324 -405 531 -817 649 -1293 74 -298 89 -439 90 -810 0 -359 -11 -461
-86 -780 -93 -396 -353 -924 -604 -1225 -27 -33 -76 -92 -107 -130 -307 -377
-846 -760 -1328 -942 -342 -130 -675 -201 -1035 -222 -114 -7 -10120 -9
-11040 -2 l-170 1 2 3283 c1 1805 2 3297 2 3314 l1 33 753 2 c413 2 2937 3
5607 2 3683 0 4884 -3 4975 -12z"/>
<path d="M4352 7613 l3 -47 55 -11 c102 -22 130 -44 165 -129 15 -35 139 -520
190 -741 15 -66 33 -138 40 -160 7 -22 29 -105 48 -185 83 -340 119 -482 148
-590 16 -63 63 -245 104 -405 40 -159 83 -326 95 -370 12 -44 32 -120 45 -170
l22 -90 96 -3 95 -3 16 48 c16 52 41 151 76 308 24 104 45 190 81 323 30 110
50 188 113 432 30 118 64 249 76 290 11 41 48 181 81 310 93 366 114 444 159
605 22 83 52 191 65 241 48 183 75 229 153 268 18 10 55 20 83 23 l49 6 0 48
0 49 -335 0 -335 0 0 -49 0 -48 60 -6 c68 -8 123 -32 160 -72 22 -24 25 -35
25 -103 -1 -42 -9 -108 -19 -147 -20 -81 -92 -354 -106 -405 -6 -19 -19 -75
-31 -125 -11 -49 -39 -155 -61 -235 -22 -80 -71 -264 -108 -410 -38 -146 -79
-301 -91 -345 -12 -44 -42 -161 -68 -259 -25 -99 -52 -181 -59 -184 -7 -2 -12
5 -12 19 0 12 -9 50 -19 83 -17 55 -139 547 -235 951 -20 83 -56 227 -80 320
-82 320 -176 731 -176 767 0 10 9 37 21 59 25 50 80 77 172 86 l63 6 -1 46 -1
46 -413 3 -412 2 3 -47z"/>
<path d="M6741 7573 c-32 -6 -85 -42 -110 -74 -46 -60 -47 -179 -2 -253 67
-108 252 -99 324 16 17 26 22 49 22 113 0 68 -4 85 -24 116 -14 19 -39 45 -57
57 -33 22 -110 34 -153 25z"/>
<path d="M14732 6860 c-57 -29 -96 -63 -134 -120 -14 -22 -19 -23 -35 -12
-141 96 -193 113 -369 119 -101 4 -146 1 -195 -11 -285 -73 -462 -338 -460
-690 1 -67 5 -137 10 -156 28 -104 41 -141 75 -204 48 -90 112 -163 180 -206
31 -19 56 -40 56 -46 0 -6 -25 -28 -55 -49 -130 -89 -185 -186 -185 -326 0
-84 15 -130 60 -177 25 -27 124 -92 139 -92 30 0 15 -23 -31 -46 -124 -63
-227 -163 -279 -272 -27 -57 -33 -82 -37 -163 -6 -122 8 -183 59 -264 97 -155
307 -238 595 -237 193 0 336 38 479 127 201 125 309 347 292 605 -11 159 -56
250 -165 330 -104 76 -220 106 -506 130 -137 12 -278 42 -324 70 -39 24 -72
75 -72 111 0 44 26 93 79 145 l49 49 164 0 c152 0 168 2 238 27 89 33 194 102
250 166 54 61 113 185 140 292 53 210 13 506 -88 654 l-27 39 39 33 c56 49 83
45 142 -18 62 -66 101 -81 161 -61 58 20 75 47 74 123 0 111 -57 160 -188 160
-58 0 -80 -5 -131 -30z m-451 -147 c75 -39 131 -111 163 -210 35 -112 50 -303
36 -468 -25 -315 -117 -445 -313 -445 -111 1 -174 38 -240 142 -57 88 -78 160
-90 303 -29 346 58 609 226 685 64 30 151 27 218 -7z m-136 -1882 c335 -39
445 -82 502 -198 44 -92 34 -236 -27 -368 -71 -155 -294 -255 -506 -227 -183
24 -310 115 -358 256 -49 143 -18 341 69 445 35 41 122 111 138 111 7 0 89 -9
182 -19z"/>
<path d="M8203 6850 c-134 -29 -240 -104 -359 -254 -46 -59 -54 -45 -54 104 0
106 -3 131 -15 138 -11 6 -51 -9 -133 -50 -64 -32 -162 -74 -217 -92 l-100
-34 -3 -40 -3 -39 56 -6 c74 -8 119 -37 140 -90 14 -38 16 -121 13 -777 -3
-712 -4 -736 -23 -774 -28 -55 -64 -78 -130 -84 l-55 -4 0 -49 0 -49 344 0
c227 0 347 4 351 10 4 6 4 29 0 50 -7 39 -8 40 -48 40 -55 0 -117 36 -139 80
-17 32 -18 87 -18 704 0 576 2 676 16 729 33 127 105 216 221 274 68 33 77 35
147 31 48 -3 85 -12 107 -24 75 -44 134 -159 151 -295 5 -44 8 -354 6 -725 -3
-597 -5 -652 -21 -689 -24 -54 -59 -78 -124 -83 l-53 -4 0 -49 0 -49 344 0
c190 0 347 3 349 8 2 4 2 26 -1 50 l-4 42 -48 0 c-56 0 -104 28 -134 80 -21
34 -21 47 -21 715 0 746 -1 727 61 842 38 69 85 111 171 151 107 50 252 31
315 -41 46 -54 81 -149 92 -252 3 -27 6 -343 7 -701 1 -667 -2 -713 -38 -750
-25 -24 -77 -44 -118 -44 l-35 0 0 -50 0 -50 345 0 345 0 0 50 0 50 -42 0
c-55 1 -121 31 -145 66 -17 26 -18 73 -24 764 -5 719 -5 737 -27 815 -44 158
-108 249 -220 312 -65 37 -71 38 -182 41 -104 4 -122 1 -190 -22 -41 -15 -91
-38 -110 -51 -54 -39 -145 -132 -182 -186 -18 -27 -36 -49 -40 -49 -4 0 -26
36 -49 81 -51 99 -102 149 -194 195 -59 29 -83 35 -155 39 -47 2 -104 0 -127
-5z"/>
<path d="M12547 6850 c-118 -15 -272 -117 -363 -241 -20 -28 -41 -48 -48 -46
-7 2 -13 51 -17 136 -3 73 -11 137 -16 142 -7 7 -51 -9 -136 -51 -70 -34 -168
-76 -219 -95 -92 -32 -93 -33 -96 -67 l-3 -35 63 -13 c50 -9 70 -19 100 -50
l38 -38 -2 -780 -3 -780 -25 -27 c-31 -34 -79 -55 -125 -55 l-35 0 0 -50 0
-50 346 0 345 0 -3 48 -3 47 -51 6 c-58 7 -80 18 -110 51 -43 47 -44 61 -44
757 0 724 -2 690 58 811 34 69 92 128 157 160 74 36 213 41 279 10 59 -28 108
-88 133 -165 41 -120 45 -215 41 -892 -3 -630 -3 -642 -24 -670 -28 -38 -80
-63 -133 -63 -40 0 -43 -2 -37 -22 3 -13 6 -35 6 -50 l0 -28 340 0 340 0 0 50
c0 48 -1 50 -27 50 -76 0 -139 41 -163 105 -8 21 -13 230 -15 705 -3 671 -6
746 -40 874 -35 135 -134 252 -246 293 -62 23 -178 33 -262 23z"/>
<path d="M10595 6841 c-227 -58 -385 -203 -430 -393 -19 -81 -19 -135 0 -189
21 -59 49 -85 104 -99 53 -13 90 -3 129 33 41 38 46 58 52 197 5 122 8 142 34
193 34 70 65 101 131 133 133 63 281 -10 328 -162 30 -95 52 -497 29 -530 -14
-20 -188 -102 -336 -156 -101 -38 -281 -150 -367 -229 -142 -131 -204 -338
-169 -558 21 -124 101 -254 194 -312 71 -45 130 -59 243 -59 87 0 113 4 164
24 96 40 165 101 241 214 l43 63 16 -63 c44 -171 112 -237 246 -238 89 0 159
29 222 92 28 28 54 62 58 76 6 25 -19 92 -35 92 -5 0 -21 -13 -37 -30 -60 -63
-129 -47 -168 38 -22 47 -22 53 -23 722 -1 747 -4 779 -66 907 -28 57 -99 139
-154 177 -63 44 -126 59 -274 62 -80 2 -159 -1 -175 -5z m385 -1243 c-1 -334
-8 -406 -51 -494 -37 -74 -112 -154 -175 -184 -54 -27 -148 -29 -199 -4 -106
50 -190 234 -170 372 34 240 165 397 450 538 60 30 117 54 127 54 17 0 18 -18
18 -282z"/>
<path d="M15620 6821 c-137 -44 -260 -137 -321 -241 -36 -61 -69 -172 -69
-230 0 -78 11 -111 51 -151 66 -66 156 -60 214 15 25 33 27 44 32 158 4 98 9
134 29 183 45 111 113 170 212 182 66 7 122 -11 173 -56 92 -81 118 -174 126
-453 l6 -207 -74 -35 c-41 -19 -152 -68 -248 -110 -204 -88 -307 -153 -407
-254 -119 -121 -174 -252 -174 -415 0 -92 25 -208 60 -276 35 -70 105 -136
184 -175 238 -118 471 -37 627 217 16 26 33 45 38 43 5 -3 10 -27 13 -53 6
-68 64 -180 111 -218 33 -25 48 -30 110 -33 116 -6 216 41 276 127 36 53 39
79 13 112 l-19 22 -40 -32 c-72 -57 -137 -39 -168 46 -16 43 -18 118 -25 748
-5 509 -11 714 -20 750 -31 121 -108 236 -197 293 -88 56 -157 72 -300 71
-111 0 -139 -4 -213 -28z m445 -1272 c0 -317 -1 -337 -21 -391 -40 -105 -113
-192 -198 -235 -42 -21 -60 -24 -120 -21 -59 3 -79 8 -116 33 -92 62 -135 166
-134 320 1 191 79 337 243 456 41 30 91 63 111 75 63 36 215 104 225 101 6 -3
10 -124 10 -338z"/>
<path d="M6859 6826 c-61 -32 -280 -122 -344 -141 l-70 -21 -3 -41 -3 -40 58
-7 c32 -4 73 -15 90 -26 67 -40 64 -1 61 -828 -3 -734 -3 -748 -24 -787 -25
-47 -89 -85 -146 -85 l-38 0 0 -50 0 -50 360 0 c402 0 369 -6 354 69 -6 27
-11 31 -38 31 -84 0 -148 43 -165 109 -15 59 -21 364 -21 1144 l0 737 -22 0
c-13 0 -35 -6 -49 -14z"/>
<path d="M19500 7626 c0 -19 -3 -41 -6 -49 -4 -12 5 -17 43 -22 126 -16 164
-41 170 -111 5 -53 4 -57 -85 -429 -32 -137 -72 -302 -87 -365 -15 -63 -42
-178 -61 -255 -19 -77 -48 -203 -65 -280 -16 -77 -34 -156 -39 -175 -5 -19
-29 -111 -52 -205 -42 -168 -42 -172 -42 -350 0 -169 2 -185 27 -262 31 -91
84 -193 125 -236 24 -26 70 -59 152 -109 181 -111 561 -97 755 26 245 157 396
420 494 861 6 28 21 84 32 125 11 41 31 122 44 180 44 191 65 283 105 455 22
94 65 278 95 410 118 510 150 617 194 653 32 25 88 50 126 57 102 17 95 12 95
66 l0 49 -340 0 -340 0 0 -49 0 -49 68 -12 c123 -21 180 -82 166 -178 -4 -26
-17 -94 -31 -152 -26 -115 -43 -194 -67 -315 -9 -43 -21 -95 -26 -115 -15 -55
-56 -229 -70 -295 -7 -33 -18 -85 -26 -115 -26 -106 -132 -546 -164 -678 -46
-193 -85 -303 -146 -422 -68 -130 -139 -219 -229 -288 -110 -82 -155 -97 -310
-97 -125 0 -133 1 -195 31 -117 56 -181 137 -216 274 -24 95 -14 314 21 475
15 66 33 149 41 185 13 66 55 244 100 425 32 129 65 270 110 470 128 573 156
675 198 724 27 31 113 71 152 71 17 0 46 3 63 6 30 6 31 9 31 55 l0 49 -405 0
-405 0 0 -34z"/>
<path d="M28769 6862 c-65 -27 -131 -74 -164 -119 -16 -21 -30 -40 -31 -42 -2
-2 -25 16 -51 39 -132 117 -332 148 -523 81 -99 -35 -176 -87 -258 -176 -108
-118 -162 -225 -215 -425 -31 -120 -30 -305 1 -405 38 -118 105 -214 192 -271
22 -15 40 -30 40 -34 0 -4 -28 -25 -62 -48 -108 -71 -178 -149 -206 -231 -7
-19 -12 -66 -12 -105 0 -60 5 -79 29 -122 16 -28 46 -65 65 -82 20 -17 36 -34
36 -36 0 -3 -33 -21 -73 -39 -186 -86 -336 -226 -394 -368 -29 -70 -24 -217 9
-290 86 -189 302 -285 638 -284 283 1 475 69 626 219 68 69 105 138 135 253
24 97 24 168 -1 243 -52 154 -157 240 -441 360 -295 124 -389 181 -405 245
-14 55 5 94 79 168 l72 72 140 0 c110 0 152 4 195 19 199 67 373 244 445 453
47 136 58 201 58 348 1 147 -12 213 -56 300 l-20 39 44 39 c35 31 49 37 78 35
30 -3 40 -11 75 -63 33 -47 48 -61 77 -68 79 -18 149 44 149 133 0 59 -35 129
-78 153 -47 28 -137 32 -193 9z m-516 -134 c57 -17 110 -72 138 -143 32 -82
39 -286 14 -420 -49 -260 -151 -480 -257 -550 -46 -31 -125 -43 -193 -31 -44
9 -100 56 -126 108 -70 137 -59 420 25 652 84 231 164 337 286 379 56 20 63
20 113 5z m-416 -1949 c65 -28 144 -62 176 -75 208 -83 310 -194 310 -334 0
-162 -121 -285 -321 -327 -110 -22 -316 -14 -394 16 -170 66 -263 234 -224
405 35 149 117 247 281 338 28 15 51 28 52 28 1 0 55 -23 120 -51z"/>
<path d="M21721 6849 c-137 -26 -270 -187 -376 -453 -13 -34 -35 -91 -49 -128
l-25 -68 22 -15 c41 -28 61 -19 87 38 130 295 165 358 218 396 37 26 64 27 87
1 36 -40 30 -118 -28 -345 -49 -187 -229 -910 -242 -970 -8 -33 -41 -167 -74
-299 -34 -131 -61 -242 -61 -247 0 -5 63 -9 140 -9 137 0 140 0 145 23 10 43
34 143 60 247 14 58 35 146 47 195 33 143 77 290 128 425 27 69 65 170 85 225
21 55 44 114 52 130 8 17 41 89 73 160 88 199 185 356 263 426 16 15 52 37 79
50 l50 23 36 -19 c77 -42 77 -141 -2 -455 -155 -613 -197 -775 -221 -855 -14
-49 -33 -119 -40 -155 -15 -68 -45 -192 -71 -295 -9 -33 -18 -75 -21 -92 l-5
-33 136 0 c153 0 140 -7 160 87 13 57 65 254 106 403 57 205 154 495 213 640
19 47 58 141 85 209 78 191 207 403 295 483 124 114 227 82 227 -71 0 -83 -98
-483 -165 -670 -18 -53 -115 -396 -161 -576 -75 -288 -54 -443 69 -522 57 -36
157 -34 234 4 58 29 147 113 196 185 60 87 187 389 187 443 0 17 -6 21 -51 29
l-35 6 -34 -87 c-18 -49 -55 -133 -82 -188 -129 -260 -279 -272 -239 -19 13
81 134 512 221 784 28 90 86 316 110 436 29 143 27 283 -4 369 -42 117 -98
155 -224 155 -70 0 -87 -4 -149 -35 -129 -65 -242 -205 -363 -452 -45 -91 -95
-199 -111 -240 -78 -196 -92 -177 -25 34 70 221 81 275 81 403 0 105 -2 120
-28 172 -16 32 -43 68 -65 85 -33 25 -46 28 -125 32 -83 3 -93 1 -152 -28 -73
-36 -157 -109 -212 -184 -89 -120 -206 -343 -276 -528 -21 -52 -44 -104 -52
-115 -14 -18 -15 -17 -9 11 3 17 14 57 24 90 62 199 93 342 98 458 4 97 1 126
-13 165 -43 112 -111 151 -224 131z"/>
<path d="M25345 6854 c-6 -2 -58 -15 -115 -28 -96 -21 -105 -25 -108 -47 -7
-57 -45 -209 -52 -209 -5 0 -23 37 -42 82 -39 97 -91 156 -161 183 -64 24
-212 17 -278 -14 -148 -68 -319 -254 -442 -483 -91 -169 -204 -470 -261 -693
-24 -95 -56 -331 -56 -410 0 -78 21 -209 47 -290 51 -161 147 -235 304 -235
97 0 174 36 256 121 122 126 174 213 298 502 38 86 72 157 77 157 13 0 10 -10
-26 -116 -19 -54 -42 -137 -51 -184 -22 -106 -25 -288 -6 -352 45 -155 244
-177 389 -44 56 52 146 179 181 258 40 88 123 319 117 325 -3 3 -25 8 -49 10
l-43 5 -13 -42 c-25 -85 -121 -283 -162 -337 -51 -65 -80 -86 -120 -86 -36 0
-39 2 -50 50 -15 66 17 247 111 623 16 63 47 189 69 280 65 268 81 331 101
405 31 108 140 548 140 562 0 12 -33 16 -55 7z m-470 -178 c65 -50 110 -181
110 -321 0 -78 -6 -109 -43 -230 -124 -402 -236 -682 -359 -902 -76 -133 -126
-199 -194 -253 -45 -36 -57 -40 -105 -40 -57 0 -74 10 -109 64 -49 74 -60 288
-25 491 28 165 105 470 136 542 8 17 14 35 14 41 0 14 114 273 163 371 51 103
143 205 218 244 70 37 139 34 194 -7z"/>
<path d="M26825 6849 c-215 -23 -394 -245 -610 -754 -67 -158 -78 -138 -22 40
63 201 92 368 85 493 -6 101 -28 153 -80 192 -46 34 -147 40 -209 12 -98 -44
-189 -153 -282 -337 -58 -117 -111 -262 -105 -292 2 -10 17 -21 36 -27 41 -11
48 -3 87 107 46 131 147 307 197 341 31 22 61 20 84 -5 27 -30 23 -132 -10
-284 -39 -180 -84 -371 -105 -450 -40 -145 -281 -1108 -281 -1121 0 -19 269
-21 274 -1 2 6 23 89 45 183 85 355 203 737 281 909 5 11 30 74 55 140 55 141
141 310 210 414 61 92 164 197 210 217 142 59 201 -69 140 -306 -13 -52 -36
-140 -50 -195 -14 -55 -41 -156 -60 -225 -91 -332 -116 -424 -145 -540 -83
-331 -85 -505 -7 -588 60 -64 179 -82 272 -41 113 50 244 226 328 439 42 107
68 193 60 201 -5 4 -26 10 -48 13 l-40 7 -29 -83 c-50 -145 -115 -266 -173
-325 -49 -51 -55 -54 -95 -51 -39 3 -43 6 -52 37 -12 43 5 188 40 325 34 134
93 346 104 371 4 11 11 31 14 45 16 63 117 447 141 535 69 247 57 434 -33 528
-65 69 -121 88 -227 76z"/>
<path d="M29785 6850 c-232 -30 -464 -241 -642 -585 -94 -183 -201 -541 -223
-750 -33 -313 27 -555 174 -700 85 -83 142 -105 281 -105 171 0 285 51 422
188 116 117 228 297 288 465 19 54 17 57 -40 76 -33 12 -40 12 -44 0 -24 -75
-173 -323 -229 -382 -138 -143 -322 -177 -439 -81 -101 83 -118 145 -116 424
1 217 7 267 34 281 7 4 52 18 99 30 215 56 403 139 560 244 142 96 199 155
263 275 58 108 72 162 71 280 0 97 -3 110 -33 172 -18 39 -48 80 -68 97 -73
61 -219 89 -358 71z m121 -148 c57 -42 78 -106 72 -225 -4 -82 -9 -101 -43
-172 -84 -174 -195 -287 -365 -374 -121 -62 -294 -119 -305 -101 -8 13 119
387 163 480 57 119 131 242 172 287 118 128 224 164 306 105z"/>
</g>
</svg>
