<svg xmlns="http://www.w3.org/2000/svg" xmlns:xlink="http://www.w3.org/1999/xlink" version="1.1" id="Layer_1" x="0px" y="0px" width="100%" viewBox="0 0 2361 400" enable-background="new 0 0 2361 400" xml:space="preserve">

<path fill="#4285F4" opacity="1.000000" stroke="none" d=" M184.531342,0.999998   C185.633636,1.663364 186.186615,2.797722 186.912537,2.922011   C212.817474,7.357330 235.815521,17.957010 255.684814,35.208019   C258.238983,37.425610 260.570099,39.900146 262.749542,42.819756   C262.271423,44.488739 262.048309,45.593624 261.825226,46.698505   C254.136475,54.466805 246.447739,62.235104 238.161163,69.906540   C237.208054,70.482681 236.852783,71.155685 236.497498,71.828690   C233.943726,70.998596 230.840561,70.828949 228.923035,69.233932   C213.534576,56.433628 195.956940,48.192547 176.330032,45.162987   C152.601624,41.500328 129.589401,44.864063 108.142075,56.037773   C88.073486,66.493187 72.541245,81.580482 61.579449,101.654854   C50.263771,122.377274 46.092155,144.477341 48.201233,167.549088   C50.240246,189.854309 58.652618,209.920303 72.920563,227.561935   C90.150520,248.865936 112.358238,262.054810 138.914078,266.647247   C161.302017,270.518860 183.725998,268.820129 204.926620,259.046844   C220.991135,251.641251 234.877686,241.556610 244.727829,226.677353   C251.716827,216.120041 255.897934,204.341385 257.999817,191.843674   C258.348236,189.771820 258.746704,187.708374 259.214661,185.130966   C225.094223,185.130966 191.349014,185.130966 157.303192,185.130966   C157.303192,170.630005 157.303192,156.573853 157.303192,142.258041   C205.466400,142.258041 253.526016,142.258041 302.046295,142.258041   C302.705109,152.089844 304.197784,161.779221 303.833984,171.398392   C302.902161,196.036194 298.712189,220.074753 286.473175,241.968338   C278.900116,255.515350 269.174500,267.242004 257.290192,277.447113   C243.327164,289.437225 227.849289,298.325836 210.500534,304.140289   C198.371399,308.205383 185.910110,310.500061 173.115753,311.018860   C167.515045,311.245911 161.912216,312.067322 156.327530,311.928436   C135.265686,311.404541 114.957642,307.261322 95.514458,298.917755   C76.322296,290.681915 59.433540,279.022675 44.883858,264.227875   C23.326462,242.307297 9.776399,215.893829 3.047934,185.939362   C2.633819,184.095749 2.154572,182.266785 1.352816,180.715500   C1.000000,164.645767 1.000000,148.291550 1.342701,131.762634   C2.097360,131.088425 2.731247,130.650070 2.888287,130.080292   C5.637680,120.104881 7.612632,109.850159 11.169005,100.175591   C21.159813,72.997139 38.826836,51.130146 61.348923,33.492851   C81.951111,17.359053 105.467583,6.949204 131.558426,2.895710   C132.123489,2.807921 132.523163,1.655683 133.000000,1.000000   C150.020889,1.000000 167.041794,1.000000 184.531342,0.999998  z"/>
<path fill="#4285F4" opacity="1.000000" stroke="none" d=" M829.468628,401.000000   C828.538452,400.342041 828.169922,399.206055 827.601868,399.095490   C810.078369,395.685944 795.202087,387.024017 782.631042,374.839600   C773.151917,365.652069 765.418640,354.858704 760.686401,341.573761   C768.206177,338.361420 775.597595,335.198608 782.993530,332.046692   C786.876587,330.391846 790.792603,328.811829 794.648071,327.095581   C798.238770,325.497284 800.182556,326.123138 802.162476,330.065887   C809.521667,344.721161 820.880920,355.291962 837.000061,359.394501   C857.463928,364.602844 882.408264,358.796997 894.658142,337.525940   C899.218567,329.606964 901.672607,320.772583 902.032959,311.464386   C902.312988,304.231537 902.887024,297.010101 903.389771,288.816620   C899.385071,292.169739 896.231384,294.887695 892.996216,297.504852   C882.798889,305.754211 871.019531,309.639008 858.048645,311.098450   C831.200317,314.119324 808.315002,305.541718 788.012573,288.524933   C771.457825,274.649292 760.656555,257.100037 755.744080,236.224976   C749.327393,208.958115 753.021790,183.070038 767.567017,158.776337   C782.551270,133.749252 804.414124,117.984619 832.633850,112.478195   C857.342102,107.656952 880.572205,112.196846 899.357910,130.851913   C899.947998,131.437943 900.526917,132.039139 901.159424,132.576233   C901.388367,132.770660 901.759399,132.797638 902.739319,133.128326   C902.739319,127.795685 902.739319,122.642899 902.739319,117.255905   C917.013245,117.255905 930.620178,117.255905 945.000000,117.255905   C945.000000,118.722527 945.000000,120.300842 945.000000,121.879166   C944.999878,183.708420 945.417969,245.541992 944.778015,307.364624   C944.546997,329.682892 938.295288,350.947571 924.357178,368.970886   C911.579407,385.493713 894.291077,395.078156 873.834167,399.046570   C872.951111,399.217926 872.168762,399.908173 871.669739,400.678345   C857.979126,401.000000 843.958191,401.000000 829.468628,401.000000  M807.449036,177.062866   C806.067810,179.802628 804.625732,182.513641 803.314880,185.286652   C791.753906,209.742538 798.367493,244.768265 821.281799,260.793457   C837.852722,272.382324 855.635742,275.107697 873.984985,266.339386   C896.589600,255.537628 904.893066,235.269592 905.622986,211.857635   C905.896179,203.093719 902.814270,193.949829 899.960022,185.414627   C890.848267,158.167099 857.416504,141.732529 829.110962,157.335205   C820.471375,162.097488 813.114807,168.037506 807.449036,177.062866  z"/>
<path fill="#5F6368" opacity="1.000000" stroke="none" d=" M2362.000000,305.531342   C2349.879150,306.000000 2337.758301,306.000000 2325.000000,306.000000   C2325.000000,303.527374 2325.000000,301.584473 2325.000000,299.641602   C2324.999756,262.150360 2325.179443,224.657715 2324.891602,187.168655   C2324.804199,175.756134 2321.815674,164.709961 2313.615479,156.294388   C2301.667480,144.032822 2286.422363,141.382080 2270.568848,145.453964   C2248.583984,151.100677 2237.480957,167.593369 2232.180664,188.475327   C2230.655762,194.482086 2230.134277,200.879333 2230.093018,207.103775   C2229.889160,237.928574 2230.000000,268.755463 2230.000000,299.581604   C2230.000000,301.530090 2230.000000,303.478546 2230.000000,305.709534   C2217.826172,305.709534 2206.253418,305.709534 2194.339844,305.709534   C2194.339844,213.938751 2194.339844,122.379196 2194.339844,30.409180   C2205.927246,30.409180 2217.502441,30.409180 2229.500732,30.409180   C2229.500732,67.204704 2229.500732,104.145737 2229.500732,141.694138   C2231.809570,139.126968 2233.883057,136.897720 2235.873047,134.596268   C2246.656982,122.123978 2260.524902,114.966583 2276.479492,112.099731   C2292.905273,109.148193 2309.209229,110.575768 2324.527588,117.387482   C2342.252930,125.269661 2352.827881,139.522156 2357.991211,157.987900   C2359.118896,162.020386 2360.126953,166.086380 2361.594971,170.068466   C2362.000000,215.020889 2362.000000,260.041779 2362.000000,305.531342  z"/>

<path fill="#5F6368" opacity="1.000000" stroke="none" d=" M1555.000122,135.000000   C1555.000122,192.109406 1555.000122,248.718811 1555.000122,305.663696   C1542.921387,305.663696 1531.348999,305.663696 1519.240356,305.663696   C1519.240356,264.695129 1519.240356,223.792892 1519.240356,182.446930   C1473.692749,182.446930 1428.676392,182.446930 1383.124756,182.446930   C1383.124756,223.424606 1383.124756,264.326874 1383.124756,305.613159   C1370.692017,305.613159 1358.785278,305.613159 1346.437256,305.613159   C1346.437256,214.018707 1346.437256,122.344955 1346.437256,30.334854   C1358.411987,30.334854 1370.317993,30.334854 1382.759766,30.334854   C1382.759766,69.302917 1382.759766,108.205864 1382.759766,147.552765   C1428.306641,147.552765 1473.323120,147.552765 1518.874512,147.552765   C1518.874512,108.575600 1518.874512,69.672684 1518.874512,30.386311   C1530.972534,30.386311 1542.546753,30.386311 1555.000122,30.386311   C1555.000122,65.032837 1555.000122,99.766418 1555.000122,135.000000  z"/>
<path fill="#EA4335" opacity="1.000000" stroke="none" d=" M327.995514,256.980682   C321.526733,244.367798 318.508240,231.272446 317.998230,217.537018   C317.457397,202.971069 318.579163,188.672516 323.928986,174.891510   C334.117828,148.645584 351.998322,129.959381 377.947540,118.924309   C393.223877,112.427956 409.208008,109.923523 425.593933,111.112846   C447.486572,112.701859 467.073334,120.382141 484.182831,134.544815   C500.177826,147.784866 510.510803,164.652908 515.477051,184.328827   C523.802002,217.311462 518.123779,248.211487 496.978577,275.215302   C487.173187,287.737396 474.586517,297.818542 459.553284,303.547180   C445.079468,309.062714 430.026978,313.050110 414.207550,311.988495   C391.803619,310.484894 371.474823,303.617462 353.732697,289.367157   C342.735748,280.534515 334.533447,269.700714 327.995514,256.980682  M364.011078,226.228760   C366.932068,238.121323 372.552124,248.635727 381.551788,256.878448   C392.494720,266.900970 405.490540,271.817780 420.639832,271.077759   C438.138580,270.222992 451.776917,262.385040 461.970917,248.677307   C472.538330,234.467407 475.705597,218.316162 473.090088,200.775040   C471.131622,187.640259 465.786743,176.033249 456.330383,167.183731   C444.289978,155.916016 429.952728,149.612259 412.624542,151.869339   C401.361145,153.336426 391.243652,157.203934 382.990723,164.684937   C364.922394,181.063202 359.786896,201.835632 364.011078,226.228760  z"/>
<path fill="#FBBC04" opacity="1.000000" stroke="none" d=" M651.684326,310.967987   C645.644287,311.328430 640.040771,312.104889 634.468506,311.922638   C611.617981,311.175293 590.723572,304.674774 572.651001,290.174316   C552.526489,274.027496 540.556335,253.285858 536.978333,227.692780   C533.814514,205.062088 536.265686,183.224136 547.158508,162.946472   C551.501343,154.862030 557.192505,147.695801 563.882202,140.951202   C571.866394,132.901489 580.461914,126.327988 590.373169,121.335403   C600.571899,116.198021 611.483887,113.396721 622.873413,111.895439   C645.891907,108.861290 667.457458,113.075409 687.550537,124.294876   C706.687500,134.980469 720.366638,150.871338 728.918823,171.018097   C734.794800,184.860474 737.514587,199.517273 736.871155,214.459167   C735.771301,239.999939 727.317871,262.649414 709.201843,281.444733   C695.034912,296.142944 677.810852,304.845459 658.369812,309.813934   C656.328735,310.335510 654.215210,310.573608 651.684326,310.967987  M636.488281,151.000259   C634.564453,151.332336 632.652527,151.779984 630.715027,151.978409   C613.122314,153.779938 599.132263,161.819138 590.105713,177.043381   C579.247742,195.356430 577.136963,214.640503 584.867371,234.998123   C594.797485,261.148651 621.556519,276.422699 648.435486,269.878265   C665.152222,265.808136 677.728455,255.599533 685.245178,240.109818   C691.177124,227.885971 693.426270,214.870636 691.085999,201.120117   C688.324463,184.894424 680.711670,171.956833 667.666870,161.864441   C658.640564,154.881042 648.266113,152.431580 636.488281,151.000259  z"/>
<path fill="#EA4335" opacity="1.000000" stroke="none" d=" M1222.115356,265.958008   C1222.409302,266.405304 1222.703125,266.852600 1223.011841,267.899933   C1223.031982,268.704468 1223.037354,268.908936 1223.042603,269.113403   C1217.058716,275.871246 1211.735718,283.403717 1204.936157,289.205444   C1194.716064,297.925537 1182.935791,304.559174 1169.743408,307.900726   C1156.663330,311.213776 1143.518433,312.843933 1129.803711,311.223969   C1113.203369,309.263214 1097.930420,304.328217 1084.223389,294.983826   C1061.276489,279.340454 1047.894653,257.468597 1042.963013,230.204224   C1038.579346,205.969650 1041.863281,182.763474 1053.118042,161.047867   C1066.716309,134.810425 1088.320801,118.783882 1117.517456,112.906242   C1141.539062,108.070381 1163.894531,111.990234 1184.306641,125.231590   C1196.859131,133.374435 1206.669800,144.581436 1213.826294,157.735611   C1218.168579,165.717270 1221.398438,174.300507 1225.227783,182.567307   C1226.373901,185.041306 1226.624146,186.872345 1223.588013,188.125824   C1200.550049,197.636963 1177.536743,207.207123 1154.516602,216.761322   C1135.091675,224.823441 1115.666504,232.884964 1096.250000,240.967255   C1095.517578,241.272110 1094.874634,241.791885 1093.770264,242.468719   C1098.703613,251.981201 1105.328613,259.673676 1114.581177,264.834351   C1135.594971,276.554993 1164.731323,272.165863 1181.108521,254.407196   C1182.122314,253.307922 1183.221069,252.286942 1184.937988,251.024384   C1186.118530,249.718399 1186.641235,248.617523 1187.163940,247.516663   C1187.163940,247.516663 1187.243408,247.258362 1187.726318,247.351303   C1190.657471,248.202789 1193.395264,248.495590 1195.500977,249.804947   C1202.544678,254.184921 1209.319214,258.995605 1216.297119,263.485565   C1218.043701,264.609497 1220.165771,265.149597 1222.115356,265.958008  M1086.313477,206.631699   C1088.308228,206.066055 1090.382324,205.691681 1092.285156,204.904083   C1105.810181,199.306183 1119.296875,193.615479 1132.802490,187.970596   C1146.455444,182.264160 1160.116211,176.576416 1173.883667,170.834564   C1172.312500,168.378326 1171.195190,165.935883 1169.470337,164.048737   C1158.734375,152.302673 1144.682983,148.534744 1129.906006,151.387802   C1103.950439,156.399185 1085.517090,179.135910 1086.313477,206.631699  z"/>
<path fill="#5F6368" opacity="1.000000" stroke="none" d=" M1768.041626,263.113556   C1756.049805,288.930298 1734.680420,303.159576 1707.998169,309.280396   C1678.723389,315.995941 1650.685669,311.879211 1626.175659,293.414368   C1607.718018,279.509247 1595.933594,260.545105 1591.335205,238.029800   C1586.821777,215.930496 1587.236572,193.621292 1594.951904,171.998901   C1599.089355,160.403809 1605.463135,150.155762 1613.560059,140.784225   C1625.509277,126.954163 1640.057007,117.452545 1657.851074,113.684502   C1685.848389,107.755814 1712.783936,110.045876 1736.932739,127.049500   C1749.944946,136.211670 1759.001709,148.766098 1764.921753,163.436066   C1770.138306,176.363220 1772.991821,189.857162 1773.051880,203.885712   C1773.062988,206.500961 1773.718140,209.108521 1773.988892,211.728668   C1774.460083,216.290131 1772.764404,218.121704 1767.792358,218.102341   C1722.794800,217.927170 1677.796387,217.999908 1632.798218,218.000015   C1630.816284,218.000015 1628.834473,218.000000 1626.308716,218.000000   C1625.240845,227.095413 1627.545532,235.371399 1631.147583,243.029968   C1640.677490,263.291840 1656.261719,275.531372 1679.081787,278.102539   C1702.341675,280.723358 1719.543213,270.792114 1733.397461,253.221985   C1733.603516,252.960739 1733.847168,252.726776 1734.034302,252.453278   C1739.087891,245.060654 1739.088989,245.056168 1746.878906,248.971329   C1748.056519,249.563156 1749.206543,250.210159 1750.775146,251.328369   C1752.479736,252.744339 1753.721313,253.760101 1755.087280,254.564896   C1759.366333,257.085999 1763.692261,259.527557 1768.008301,262.278442   C1768.025024,262.742462 1768.033325,262.928009 1768.041626,263.113556  M1706.516846,148.861771   C1700.004761,147.243469 1693.567993,144.737061 1686.966187,144.177078   C1668.774414,142.634064 1653.081055,148.385391 1641.020264,162.533798   C1634.868774,169.750061 1630.704712,177.984787 1629.039551,187.684067   C1664.532104,187.684067 1699.586304,187.684067 1734.896362,187.684067   C1732.458130,169.637100 1723.369995,156.845184 1706.516846,148.861771  z"/>
<path fill="#5F6368" opacity="1.000000" stroke="none" d=" M1799.892578,143.951202   C1804.990234,133.659027 1814.135742,127.537621 1823.620850,122.283905   C1843.890259,111.056732 1865.861694,109.388657 1888.520264,111.867043   C1906.266724,113.808159 1922.182495,119.932388 1935.291748,132.007980   C1945.437500,141.353867 1951.827881,153.327332 1954.879883,166.795929   C1956.180908,172.537430 1956.883057,178.537781 1956.910034,184.424850   C1957.085205,222.738052 1957.000000,261.052460 1957.000000,299.366486   C1957.000000,301.333954 1957.000000,303.301392 1957.000000,305.632935   C1945.653442,305.632935 1934.748047,305.632935 1922.929810,305.632935   C1922.929810,297.367584 1922.929810,289.038208 1922.929810,280.708862   C1922.088623,280.182770 1921.247437,279.656708 1920.406128,279.130646   C1918.803589,281.495575 1917.131836,283.816925 1915.609619,286.232574   C1905.815430,301.776001 1890.890259,308.559723 1873.424072,311.073853   C1853.680176,313.915894 1835.269897,310.211761 1818.623047,299.217865   C1797.594604,285.330322 1787.905884,265.484100 1790.116699,240.431168   C1792.315796,215.510941 1806.975952,199.577850 1829.218140,190.120972   C1846.687012,182.693558 1865.294678,181.984070 1883.850464,183.192215   C1896.322388,184.004272 1908.600708,186.738922 1919.978394,192.430435   C1920.660278,192.771515 1921.522339,192.752335 1922.811279,192.998230   C1923.304077,182.580185 1921.634155,172.924225 1915.749023,164.651382   C1905.242432,149.882004 1890.378418,142.725891 1872.438721,143.147171   C1857.557251,143.496643 1844.656860,149.400574 1834.220093,160.272003   C1826.488281,168.326111 1825.926880,168.333633 1816.275391,160.662170   C1812.046997,154.131180 1805.904053,151.843750 1799.398438,150.156616   C1799.033936,148.904846 1798.669434,147.653061 1798.839844,146.147491   C1799.547363,145.246201 1799.719971,144.598709 1799.892578,143.951202  M1892.160278,213.032089   C1890.329590,213.006165 1888.466064,213.195145 1886.673340,212.920944   C1869.419678,210.281967 1853.514648,213.680496 1839.586304,224.252975   C1823.135376,236.740021 1823.417114,258.887024 1840.357056,271.195679   C1859.665649,285.225342 1888.929443,280.040436 1906.442993,261.974731   C1913.864014,254.319809 1919.309814,245.422485 1921.661377,234.784470   C1923.716187,225.488022 1923.688721,224.385849 1914.882080,220.579315   C1907.843506,217.537064 1900.342163,215.565353 1892.160278,213.032089  z"/>
<path fill="#34A853" opacity="1.000000" stroke="none" d=" M1020.999939,28.001774   C1020.999939,120.770325 1020.999939,213.039154 1020.999939,305.653564   C1006.001770,305.653564 991.421265,305.653564 976.419067,305.653564   C976.419067,207.713806 976.419067,109.703461 976.419067,11.346420   C990.998047,11.346420 1005.578247,11.346420 1020.999939,11.346420   C1020.999939,16.663017 1020.999939,22.082535 1020.999939,28.001774  z"/>
<path fill="#5F6368" opacity="1.000000" stroke="none" d=" M2167.321289,288.718811   C2169.025879,293.577423 2170.523438,298.100067 2172.395508,303.753876   C2167.416992,305.065094 2162.706055,306.717987 2157.854492,307.508423   C2141.595703,310.157349 2125.422363,310.287079 2110.633789,301.765503   C2095.582764,293.092621 2086.582764,279.789825 2086.156738,262.322479   C2085.296875,227.057632 2085.332520,191.770935 2085.002441,156.493225   C2084.984131,154.538177 2085.000000,152.582825 2085.000000,150.089661   C2073.881104,150.089661 2063.298340,150.089661 2052.363281,150.089661   C2052.363281,138.977509 2052.363281,128.402191 2052.363281,117.277496   C2062.919434,117.277496 2073.502197,117.277496 2084.799316,117.277496   C2084.799316,97.718857 2084.799316,78.683006 2084.799316,59.329552   C2097.424316,59.329552 2109.332031,59.329552 2121.785645,59.329552   C2121.785645,78.322388 2121.785645,97.234985 2121.785645,116.863434   C2137.342041,116.863434 2152.381348,116.863434 2167.701416,116.863434   C2167.701416,128.157104 2167.701416,138.731216 2167.701416,149.850830   C2152.611572,149.850830 2137.697998,149.850830 2122.405029,149.850830   C2122.242188,151.788864 2122.017334,153.221863 2122.016357,154.654999   C2121.996094,186.318832 2121.633301,217.988693 2122.150635,249.644089   C2122.420654,266.165680 2131.615479,274.635651 2146.921143,274.940125   C2149.358887,274.988647 2151.987549,274.780365 2154.223145,273.909363   C2160.906006,271.306091 2162.279297,276.320862 2164.187988,280.514984   C2165.343994,283.055420 2166.150879,285.754822 2167.321289,288.718811  z"/>
<path fill="#5F6368" opacity="1.000000" stroke="none" d=" M2029.838745,31.394039   C2029.956421,121.960648 2029.977539,212.067276 2029.989014,302.173920   C2029.989136,303.161652 2029.860718,304.149353 2029.762451,305.565247   C2018.006958,305.565247 2006.319214,305.565247 1994.313232,305.565247   C1994.313232,213.911758 1994.313232,122.379974 1994.313232,29.999187   C2001.554199,29.999187 2008.806885,29.888292 2016.053955,30.039530   C2020.620728,30.134836 2025.179443,30.622446 2029.838745,31.394039  z"/>
<path fill="#EA4335" opacity="1.000000" stroke="none" d=" M1222.056152,265.601257   C1220.165771,265.149597 1218.043701,264.609497 1216.297119,263.485565   C1209.319214,258.995605 1202.544678,254.184921 1195.500977,249.804947   C1193.395264,248.495590 1190.657471,248.202789 1187.854004,247.306824   C1188.648438,243.999985 1189.963135,243.140152 1193.226929,245.497620   C1202.653442,252.306335 1212.385132,258.692413 1222.056152,265.601257  z"/>
<path fill="#5F6368" opacity="1.000000" stroke="none" d=" M1799.599609,150.462433   C1805.904053,151.843750 1812.046997,154.131180 1815.967896,160.491455   C1810.600220,157.478531 1805.200439,154.123398 1799.599609,150.462433  z"/>
<path fill="#5F6368" opacity="1.000000" stroke="none" d=" M1768.000000,262.000000   C1763.692261,259.527557 1759.366333,257.085999 1755.087280,254.564896   C1753.721313,253.760101 1752.479736,252.744339 1751.091675,251.495819   C1757.234619,254.551620 1763.467041,257.936737 1769.461914,261.660858   C1768.816284,261.999908 1768.408203,261.999939 1768.000000,262.000000  z"/>
<path fill="#EA4335" opacity="1.000000" stroke="none" d=" M1186.922363,247.703857   C1186.641235,248.617523 1186.118530,249.718399 1185.240356,250.888840   C1185.483521,249.935959 1186.082031,248.913498 1186.922363,247.703857  z"/>
<path fill="#4285F4" opacity="1.000000" stroke="none" d=" M262.019897,46.465317   C262.048309,45.593624 262.271423,44.488739 262.802002,43.168571   C262.811157,44.046238 262.512848,45.139183 262.019897,46.465317  z"/>
<path fill="#5F6368" opacity="1.000000" stroke="none" d=" M1799.633423,144.112366   C1799.719971,144.598709 1799.547363,145.246201 1799.106934,145.953125   C1799.017456,145.432877 1799.195923,144.853210 1799.633423,144.112366  z"/>
<path fill="#4285F4" opacity="1.000000" stroke="none" d=" M236.740463,71.658310   C236.852783,71.155685 237.208054,70.482681 237.805634,69.958908   C237.693100,70.568077 237.338257,71.028008 236.740463,71.658310  z"/>
<path fill="#5F6368" opacity="1.000000" stroke="none" d=" M1768.008301,262.278442   C1768.408203,261.999939 1768.816284,261.999908 1769.530151,261.999634   C1769.432983,262.334839 1769.030273,262.670349 1768.334595,263.059692   C1768.033325,262.928009 1768.025024,262.742462 1768.008301,262.278442  z"/>
<path fill="#EA4335" opacity="1.000000" stroke="none" d=" M1223.284790,269.014435   C1223.037354,268.908936 1223.031982,268.704468 1223.034546,268.193176   C1223.203857,268.229370 1223.365356,268.572418 1223.284790,269.014435  z"/>






</svg>